# xmcd CD database file
#
# Track frame offsets:
#	150
#	11864
#	25752
#	49626
#	70929
#	84511
#	95566
#	112396
#	128643
#	140249
#	151570
#	167326
#
# Disc length: 2418 seconds
#
# Revision: 0
# Processed by: cddbd v1.5.2PL0 Copyright (c) Steve Scherf et al.
# Submitted via: CDex 1.51
#
DISCID=9909700c
DTITLE=Dutch Fifties Jazz - Jazz Behind The Dikes CD2
DYEAR=1957
DGENRE=Jazz
TTITLE0=Frans Elsen Quartet - All Things You Are
TTITLE1=Pim Jacobs Trio - The Ladybird 
TTITLE2=Wessel Ilcken Allstars - Jeepers Creepers
TTITLE3=Wessel Ilcken Allstars - The Groover
TTITLE4=The Rob Madna Trio - The Teacher
TTITLE5=Tony Vos Quartet - Lady Elizabeth
TTITLE6=Frans Elsen Quintet - Don't Get Sad
TTITLE7=Frans Elsen Quintet - Sam
TTITLE8=Wessel Ilcken Combo - Schooldays
TTITLE9=Wessel Ilcken Combo - Limonade
TTITLE10=Wessel Ilcken Combo - Saturdaynight Fisch Fry
TTITLE11=Wessel Ilcken Combo - If You're So Smart, how Come You Ain't Rich
EXTD=YEAR: 1957
EXTT0=
EXTT1=
EXTT2=
EXTT3=
EXTT4=
EXTT5=
EXTT6=
EXTT7=
EXTT8=
EXTT9=
EXTT10=
EXTT11=
PLAYORDER=
